<mxfile host="app.diagrams.net" agent="Mozilla/5.0 (Windows NT 10.0; Win64; x64) AppleWebKit/537.36 (KHTML, like Gecko) Chrome/129.0.0.0 Safari/537.36" version="24.7.16" pages="3">
  <diagram name="5.1" id="LCuWv4y4qXl1L4GHuLo4">
    <mxGraphModel grid="1" page="1" gridSize="10" guides="1" tooltips="1" connect="1" arrows="1" fold="1" pageScale="1" pageWidth="850" pageHeight="1100" math="0" shadow="0">
      <root>
        <mxCell id="0" />
        <mxCell id="1" parent="0" />
        <mxCell id="RZlHH-e33-4gLpqHnUSY-1" value="START" style="strokeWidth=2;html=1;shape=mxgraph.flowchart.terminator;whiteSpace=wrap;" vertex="1" parent="1">
          <mxGeometry x="360" y="20" width="100" height="40" as="geometry" />
        </mxCell>
        <mxCell id="RZlHH-e33-4gLpqHnUSY-2" value="INITIALIZE evenCount = 0, sumEven = 0, productOdd = 1, i = 1" style="shape=hexagon;perimeter=hexagonPerimeter2;whiteSpace=wrap;html=1;fixedSize=1;size=20;" vertex="1" parent="1">
          <mxGeometry x="285" y="100" width="250" height="50" as="geometry" />
        </mxCell>
        <mxCell id="RZlHH-e33-4gLpqHnUSY-3" value="" style="endArrow=classic;html=1;rounded=0;exitX=0.5;exitY=1;exitDx=0;exitDy=0;exitPerimeter=0;" edge="1" parent="1" source="RZlHH-e33-4gLpqHnUSY-1" target="RZlHH-e33-4gLpqHnUSY-2">
          <mxGeometry width="50" height="50" relative="1" as="geometry">
            <mxPoint x="400" y="340" as="sourcePoint" />
            <mxPoint x="450" y="290" as="targetPoint" />
          </mxGeometry>
        </mxCell>
        <mxCell id="RZlHH-e33-4gLpqHnUSY-4" value="i &amp;lt;= 10&lt;div&gt;?&lt;/div&gt;" style="rhombus;whiteSpace=wrap;html=1;" vertex="1" parent="1">
          <mxGeometry x="370" y="190" width="80" height="80" as="geometry" />
        </mxCell>
        <mxCell id="RZlHH-e33-4gLpqHnUSY-5" value="" style="endArrow=classic;html=1;rounded=0;exitX=0.5;exitY=1;exitDx=0;exitDy=0;entryX=0.5;entryY=0;entryDx=0;entryDy=0;" edge="1" parent="1" source="RZlHH-e33-4gLpqHnUSY-2" target="RZlHH-e33-4gLpqHnUSY-4">
          <mxGeometry width="50" height="50" relative="1" as="geometry">
            <mxPoint x="400" y="340" as="sourcePoint" />
            <mxPoint x="450" y="290" as="targetPoint" />
          </mxGeometry>
        </mxCell>
        <mxCell id="RZlHH-e33-4gLpqHnUSY-6" value="YES" style="text;html=1;align=center;verticalAlign=middle;whiteSpace=wrap;rounded=0;" vertex="1" parent="1">
          <mxGeometry x="410" y="270" width="60" height="30" as="geometry" />
        </mxCell>
        <mxCell id="RZlHH-e33-4gLpqHnUSY-7" value="NO" style="text;html=1;align=center;verticalAlign=middle;whiteSpace=wrap;rounded=0;" vertex="1" parent="1">
          <mxGeometry x="300" y="200" width="60" height="30" as="geometry" />
        </mxCell>
        <mxCell id="RZlHH-e33-4gLpqHnUSY-8" value="" style="endArrow=classic;html=1;rounded=0;exitX=0;exitY=0;exitDx=0;exitDy=0;" edge="1" parent="1" source="RZlHH-e33-4gLpqHnUSY-6">
          <mxGeometry width="50" height="50" relative="1" as="geometry">
            <mxPoint x="400" y="340" as="sourcePoint" />
            <mxPoint x="410" y="310" as="targetPoint" />
          </mxGeometry>
        </mxCell>
        <mxCell id="RZlHH-e33-4gLpqHnUSY-9" value="GET num" style="shape=parallelogram;perimeter=parallelogramPerimeter;whiteSpace=wrap;html=1;fixedSize=1;" vertex="1" parent="1">
          <mxGeometry x="350" y="310" width="120" height="30" as="geometry" />
        </mxCell>
        <mxCell id="RZlHH-e33-4gLpqHnUSY-10" value="num % 2 == 0&lt;div&gt;?&lt;/div&gt;" style="rhombus;whiteSpace=wrap;html=1;" vertex="1" parent="1">
          <mxGeometry x="340" y="380" width="140" height="80" as="geometry" />
        </mxCell>
        <mxCell id="RZlHH-e33-4gLpqHnUSY-11" value="" style="endArrow=classic;html=1;rounded=0;entryX=0.5;entryY=0;entryDx=0;entryDy=0;exitX=0.5;exitY=1;exitDx=0;exitDy=0;" edge="1" parent="1" source="RZlHH-e33-4gLpqHnUSY-9" target="RZlHH-e33-4gLpqHnUSY-10">
          <mxGeometry width="50" height="50" relative="1" as="geometry">
            <mxPoint x="330" y="340" as="sourcePoint" />
            <mxPoint x="380" y="290" as="targetPoint" />
          </mxGeometry>
        </mxCell>
        <mxCell id="RZlHH-e33-4gLpqHnUSY-12" value="" style="endArrow=classic;html=1;rounded=0;exitX=1;exitY=0.5;exitDx=0;exitDy=0;entryX=1;entryY=1;entryDx=0;entryDy=0;" edge="1" parent="1" source="RZlHH-e33-4gLpqHnUSY-10" target="RZlHH-e33-4gLpqHnUSY-13">
          <mxGeometry width="50" height="50" relative="1" as="geometry">
            <mxPoint x="330" y="470" as="sourcePoint" />
            <mxPoint x="560" y="420" as="targetPoint" />
          </mxGeometry>
        </mxCell>
        <mxCell id="RZlHH-e33-4gLpqHnUSY-13" value="NO" style="text;html=1;align=center;verticalAlign=middle;whiteSpace=wrap;rounded=0;" vertex="1" parent="1">
          <mxGeometry x="480" y="390" width="60" height="30" as="geometry" />
        </mxCell>
        <mxCell id="RZlHH-e33-4gLpqHnUSY-14" value="productOdd *= num" style="rounded=0;whiteSpace=wrap;html=1;" vertex="1" parent="1">
          <mxGeometry x="540" y="400" width="120" height="40" as="geometry" />
        </mxCell>
        <mxCell id="RZlHH-e33-4gLpqHnUSY-15" value="evenCount++" style="rounded=0;whiteSpace=wrap;html=1;" vertex="1" parent="1">
          <mxGeometry x="350" y="490" width="120" height="30" as="geometry" />
        </mxCell>
        <mxCell id="RZlHH-e33-4gLpqHnUSY-16" value="sumEven += num" style="rounded=0;whiteSpace=wrap;html=1;" vertex="1" parent="1">
          <mxGeometry x="350" y="550" width="120" height="30" as="geometry" />
        </mxCell>
        <mxCell id="RZlHH-e33-4gLpqHnUSY-17" value="" style="endArrow=classic;html=1;rounded=0;entryX=0.5;entryY=0;entryDx=0;entryDy=0;exitX=0.5;exitY=1;exitDx=0;exitDy=0;" edge="1" parent="1" source="RZlHH-e33-4gLpqHnUSY-10" target="RZlHH-e33-4gLpqHnUSY-15">
          <mxGeometry width="50" height="50" relative="1" as="geometry">
            <mxPoint x="330" y="470" as="sourcePoint" />
            <mxPoint x="380" y="420" as="targetPoint" />
          </mxGeometry>
        </mxCell>
        <mxCell id="RZlHH-e33-4gLpqHnUSY-18" value="" style="endArrow=classic;html=1;rounded=0;entryX=0.5;entryY=0;entryDx=0;entryDy=0;exitX=0.5;exitY=1;exitDx=0;exitDy=0;" edge="1" parent="1" source="RZlHH-e33-4gLpqHnUSY-15" target="RZlHH-e33-4gLpqHnUSY-16">
          <mxGeometry width="50" height="50" relative="1" as="geometry">
            <mxPoint x="330" y="470" as="sourcePoint" />
            <mxPoint x="380" y="420" as="targetPoint" />
          </mxGeometry>
        </mxCell>
        <mxCell id="RZlHH-e33-4gLpqHnUSY-19" value="i++" style="rounded=0;whiteSpace=wrap;html=1;" vertex="1" parent="1">
          <mxGeometry x="740" y="405" width="50" height="30" as="geometry" />
        </mxCell>
        <mxCell id="RZlHH-e33-4gLpqHnUSY-20" value="" style="endArrow=classic;html=1;rounded=0;entryX=0;entryY=0.5;entryDx=0;entryDy=0;exitX=1;exitY=0.5;exitDx=0;exitDy=0;" edge="1" parent="1" source="RZlHH-e33-4gLpqHnUSY-14" target="RZlHH-e33-4gLpqHnUSY-19">
          <mxGeometry width="50" height="50" relative="1" as="geometry">
            <mxPoint x="470" y="470" as="sourcePoint" />
            <mxPoint x="520" y="420" as="targetPoint" />
          </mxGeometry>
        </mxCell>
        <mxCell id="RZlHH-e33-4gLpqHnUSY-21" value="" style="endArrow=classic;html=1;rounded=0;entryX=0.5;entryY=1;entryDx=0;entryDy=0;" edge="1" parent="1" target="RZlHH-e33-4gLpqHnUSY-19">
          <mxGeometry width="50" height="50" relative="1" as="geometry">
            <mxPoint x="760" y="565" as="sourcePoint" />
            <mxPoint x="750" y="439.9999999999999" as="targetPoint" />
          </mxGeometry>
        </mxCell>
        <mxCell id="RZlHH-e33-4gLpqHnUSY-22" value="" style="endArrow=none;html=1;rounded=0;exitX=1;exitY=0.5;exitDx=0;exitDy=0;" edge="1" parent="1" source="RZlHH-e33-4gLpqHnUSY-16">
          <mxGeometry width="50" height="50" relative="1" as="geometry">
            <mxPoint x="470" y="470" as="sourcePoint" />
            <mxPoint x="760" y="565" as="targetPoint" />
          </mxGeometry>
        </mxCell>
        <mxCell id="RZlHH-e33-4gLpqHnUSY-23" value="" style="endArrow=classic;html=1;rounded=0;" edge="1" parent="1">
          <mxGeometry width="50" height="50" relative="1" as="geometry">
            <mxPoint x="760" y="170" as="sourcePoint" />
            <mxPoint x="410" y="170" as="targetPoint" />
          </mxGeometry>
        </mxCell>
        <mxCell id="RZlHH-e33-4gLpqHnUSY-24" value="" style="endArrow=none;html=1;rounded=0;exitX=0.5;exitY=0;exitDx=0;exitDy=0;" edge="1" parent="1" source="RZlHH-e33-4gLpqHnUSY-19">
          <mxGeometry width="50" height="50" relative="1" as="geometry">
            <mxPoint x="760" y="400" as="sourcePoint" />
            <mxPoint x="760" y="170" as="targetPoint" />
          </mxGeometry>
        </mxCell>
        <mxCell id="RZlHH-e33-4gLpqHnUSY-25" value="averageEven = sumEven / evenCount" style="rounded=0;whiteSpace=wrap;html=1;" vertex="1" parent="1">
          <mxGeometry x="125" y="210" width="130" height="40" as="geometry" />
        </mxCell>
        <mxCell id="RZlHH-e33-4gLpqHnUSY-26" value="" style="endArrow=classic;html=1;rounded=0;entryX=1;entryY=0.5;entryDx=0;entryDy=0;exitX=0;exitY=0.5;exitDx=0;exitDy=0;" edge="1" parent="1" source="RZlHH-e33-4gLpqHnUSY-4" target="RZlHH-e33-4gLpqHnUSY-25">
          <mxGeometry width="50" height="50" relative="1" as="geometry">
            <mxPoint x="370" y="370" as="sourcePoint" />
            <mxPoint x="420" y="320" as="targetPoint" />
          </mxGeometry>
        </mxCell>
        <mxCell id="RZlHH-e33-4gLpqHnUSY-27" value="DISPLAY averageEven" style="shape=parallelogram;perimeter=parallelogramPerimeter;whiteSpace=wrap;html=1;fixedSize=1;" vertex="1" parent="1">
          <mxGeometry x="110" y="300" width="160" height="35" as="geometry" />
        </mxCell>
        <mxCell id="RZlHH-e33-4gLpqHnUSY-28" value="DISPLAY productOdd" style="shape=parallelogram;perimeter=parallelogramPerimeter;whiteSpace=wrap;html=1;fixedSize=1;" vertex="1" parent="1">
          <mxGeometry x="110" y="380" width="160" height="35" as="geometry" />
        </mxCell>
        <mxCell id="RZlHH-e33-4gLpqHnUSY-29" value="" style="endArrow=classic;html=1;rounded=0;exitX=0.5;exitY=1;exitDx=0;exitDy=0;entryX=0.5;entryY=0;entryDx=0;entryDy=0;" edge="1" parent="1" source="RZlHH-e33-4gLpqHnUSY-25" target="RZlHH-e33-4gLpqHnUSY-27">
          <mxGeometry width="50" height="50" relative="1" as="geometry">
            <mxPoint x="250" y="370" as="sourcePoint" />
            <mxPoint x="300" y="320" as="targetPoint" />
          </mxGeometry>
        </mxCell>
        <mxCell id="RZlHH-e33-4gLpqHnUSY-30" value="" style="endArrow=classic;html=1;rounded=0;exitX=0.5;exitY=1;exitDx=0;exitDy=0;entryX=0.5;entryY=0;entryDx=0;entryDy=0;" edge="1" parent="1" source="RZlHH-e33-4gLpqHnUSY-27" target="RZlHH-e33-4gLpqHnUSY-28">
          <mxGeometry width="50" height="50" relative="1" as="geometry">
            <mxPoint x="250" y="370" as="sourcePoint" />
            <mxPoint x="300" y="320" as="targetPoint" />
          </mxGeometry>
        </mxCell>
        <mxCell id="RZlHH-e33-4gLpqHnUSY-31" value="STOP" style="strokeWidth=2;html=1;shape=mxgraph.flowchart.terminator;whiteSpace=wrap;" vertex="1" parent="1">
          <mxGeometry x="140" y="450" width="100" height="40" as="geometry" />
        </mxCell>
        <mxCell id="RZlHH-e33-4gLpqHnUSY-32" value="" style="endArrow=classic;html=1;rounded=0;exitX=0.5;exitY=1;exitDx=0;exitDy=0;entryX=0.5;entryY=0;entryDx=0;entryDy=0;entryPerimeter=0;" edge="1" parent="1" source="RZlHH-e33-4gLpqHnUSY-28" target="RZlHH-e33-4gLpqHnUSY-31">
          <mxGeometry width="50" height="50" relative="1" as="geometry">
            <mxPoint x="250" y="370" as="sourcePoint" />
            <mxPoint x="300" y="320" as="targetPoint" />
          </mxGeometry>
        </mxCell>
      </root>
    </mxGraphModel>
  </diagram>
  <diagram id="xa9Z86tVcv9yYlQDMKtL" name="5.2">
    <mxGraphModel dx="1290" dy="603" grid="1" gridSize="10" guides="1" tooltips="1" connect="1" arrows="1" fold="1" page="1" pageScale="1" pageWidth="850" pageHeight="1100" math="0" shadow="0">
      <root>
        <mxCell id="0" />
        <mxCell id="1" parent="0" />
        <mxCell id="ouTstgdiYI-rTI9Ol5u6-1" value="Naa ras drawing book" style="text;html=1;align=center;verticalAlign=middle;whiteSpace=wrap;rounded=0;" vertex="1" parent="1">
          <mxGeometry x="390" y="340" width="290" height="20" as="geometry" />
        </mxCell>
      </root>
    </mxGraphModel>
  </diagram>
  <diagram id="qpnGoJynn1FCShCO6ghi" name="5.3">
    <mxGraphModel dx="688" dy="576" grid="1" gridSize="10" guides="1" tooltips="1" connect="1" arrows="1" fold="1" page="1" pageScale="1" pageWidth="850" pageHeight="1100" math="0" shadow="0">
      <root>
        <mxCell id="0" />
        <mxCell id="1" parent="0" />
        <mxCell id="lF_6BKa6mjAE7VA4doPP-1" value="powerProblemSolver(base, power)" style="swimlane;whiteSpace=wrap;html=1;" vertex="1" parent="1">
          <mxGeometry width="500" height="480" as="geometry" />
        </mxCell>
        <mxCell id="lF_6BKa6mjAE7VA4doPP-2" value="START" style="strokeWidth=2;html=1;shape=mxgraph.flowchart.start_1;whiteSpace=wrap;" vertex="1" parent="lF_6BKa6mjAE7VA4doPP-1">
          <mxGeometry x="110" y="40" width="100" height="60" as="geometry" />
        </mxCell>
        <mxCell id="lF_6BKa6mjAE7VA4doPP-3" value="INITIALIZE i = 0, result = 1" style="shape=hexagon;perimeter=hexagonPerimeter2;whiteSpace=wrap;html=1;fixedSize=1;" vertex="1" parent="lF_6BKa6mjAE7VA4doPP-1">
          <mxGeometry x="70" y="150" width="180" height="40" as="geometry" />
        </mxCell>
        <mxCell id="lF_6BKa6mjAE7VA4doPP-4" value="" style="endArrow=classic;html=1;rounded=0;exitX=0.5;exitY=1;exitDx=0;exitDy=0;exitPerimeter=0;entryX=0.5;entryY=0;entryDx=0;entryDy=0;" edge="1" parent="lF_6BKa6mjAE7VA4doPP-1" source="lF_6BKa6mjAE7VA4doPP-2" target="lF_6BKa6mjAE7VA4doPP-3">
          <mxGeometry width="50" height="50" relative="1" as="geometry">
            <mxPoint x="210" y="200" as="sourcePoint" />
            <mxPoint x="260" y="150" as="targetPoint" />
          </mxGeometry>
        </mxCell>
        <mxCell id="lF_6BKa6mjAE7VA4doPP-5" value="i &amp;lt; power&lt;div&gt;?&lt;/div&gt;" style="rhombus;whiteSpace=wrap;html=1;" vertex="1" parent="lF_6BKa6mjAE7VA4doPP-1">
          <mxGeometry x="120" y="230" width="80" height="80" as="geometry" />
        </mxCell>
        <mxCell id="lF_6BKa6mjAE7VA4doPP-6" value="" style="endArrow=classic;html=1;rounded=0;exitX=0.5;exitY=1;exitDx=0;exitDy=0;entryX=0.5;entryY=0;entryDx=0;entryDy=0;" edge="1" parent="lF_6BKa6mjAE7VA4doPP-1" source="lF_6BKa6mjAE7VA4doPP-3" target="lF_6BKa6mjAE7VA4doPP-5">
          <mxGeometry width="50" height="50" relative="1" as="geometry">
            <mxPoint x="220" y="320" as="sourcePoint" />
            <mxPoint x="270" y="270" as="targetPoint" />
          </mxGeometry>
        </mxCell>
        <mxCell id="lF_6BKa6mjAE7VA4doPP-7" value="COMPUTE result *= base" style="rounded=0;whiteSpace=wrap;html=1;" vertex="1" parent="lF_6BKa6mjAE7VA4doPP-1">
          <mxGeometry x="80" y="350" width="160" height="40" as="geometry" />
        </mxCell>
        <mxCell id="lF_6BKa6mjAE7VA4doPP-8" value="" style="endArrow=classic;html=1;rounded=0;exitX=0.5;exitY=1;exitDx=0;exitDy=0;entryX=0.5;entryY=0;entryDx=0;entryDy=0;" edge="1" parent="lF_6BKa6mjAE7VA4doPP-1" source="lF_6BKa6mjAE7VA4doPP-5" target="lF_6BKa6mjAE7VA4doPP-7">
          <mxGeometry width="50" height="50" relative="1" as="geometry">
            <mxPoint x="220" y="320" as="sourcePoint" />
            <mxPoint x="270" y="270" as="targetPoint" />
          </mxGeometry>
        </mxCell>
        <mxCell id="lF_6BKa6mjAE7VA4doPP-9" value="i++" style="rounded=0;whiteSpace=wrap;html=1;" vertex="1" parent="lF_6BKa6mjAE7VA4doPP-1">
          <mxGeometry x="135" y="420" width="50" height="40" as="geometry" />
        </mxCell>
        <mxCell id="lF_6BKa6mjAE7VA4doPP-10" value="" style="endArrow=classic;html=1;rounded=0;exitX=0.5;exitY=1;exitDx=0;exitDy=0;entryX=0.5;entryY=0;entryDx=0;entryDy=0;" edge="1" parent="lF_6BKa6mjAE7VA4doPP-1" source="lF_6BKa6mjAE7VA4doPP-7" target="lF_6BKa6mjAE7VA4doPP-9">
          <mxGeometry width="50" height="50" relative="1" as="geometry">
            <mxPoint x="220" y="320" as="sourcePoint" />
            <mxPoint x="270" y="270" as="targetPoint" />
          </mxGeometry>
        </mxCell>
        <mxCell id="lF_6BKa6mjAE7VA4doPP-11" value="YES" style="text;html=1;align=center;verticalAlign=middle;whiteSpace=wrap;rounded=0;" vertex="1" parent="lF_6BKa6mjAE7VA4doPP-1">
          <mxGeometry x="160" y="310" width="60" height="30" as="geometry" />
        </mxCell>
        <mxCell id="lF_6BKa6mjAE7VA4doPP-12" value="" style="endArrow=classic;html=1;rounded=0;" edge="1" parent="lF_6BKa6mjAE7VA4doPP-1">
          <mxGeometry width="50" height="50" relative="1" as="geometry">
            <mxPoint x="50" y="210" as="sourcePoint" />
            <mxPoint x="160" y="210" as="targetPoint" />
          </mxGeometry>
        </mxCell>
        <mxCell id="lF_6BKa6mjAE7VA4doPP-13" value="" style="endArrow=none;html=1;rounded=0;" edge="1" parent="lF_6BKa6mjAE7VA4doPP-1">
          <mxGeometry width="50" height="50" relative="1" as="geometry">
            <mxPoint x="50" y="440" as="sourcePoint" />
            <mxPoint x="50" y="210" as="targetPoint" />
          </mxGeometry>
        </mxCell>
        <mxCell id="lF_6BKa6mjAE7VA4doPP-16" value="STOP" style="strokeWidth=2;html=1;shape=mxgraph.flowchart.start_1;whiteSpace=wrap;" vertex="1" parent="lF_6BKa6mjAE7VA4doPP-1">
          <mxGeometry x="290" y="410" width="100" height="60" as="geometry" />
        </mxCell>
        <mxCell id="lF_6BKa6mjAE7VA4doPP-17" value="NO" style="text;html=1;align=center;verticalAlign=middle;whiteSpace=wrap;rounded=0;" vertex="1" parent="lF_6BKa6mjAE7VA4doPP-1">
          <mxGeometry x="210" y="240" width="60" height="30" as="geometry" />
        </mxCell>
        <mxCell id="lF_6BKa6mjAE7VA4doPP-14" value="" style="endArrow=none;html=1;rounded=0;entryX=0;entryY=0.5;entryDx=0;entryDy=0;" edge="1" parent="lF_6BKa6mjAE7VA4doPP-1" target="lF_6BKa6mjAE7VA4doPP-9">
          <mxGeometry width="50" height="50" relative="1" as="geometry">
            <mxPoint x="50" y="440" as="sourcePoint" />
            <mxPoint x="270" y="270" as="targetPoint" />
          </mxGeometry>
        </mxCell>
        <mxCell id="lF_6BKa6mjAE7VA4doPP-18" value="" style="endArrow=none;html=1;rounded=0;exitX=1;exitY=0.5;exitDx=0;exitDy=0;" edge="1" parent="lF_6BKa6mjAE7VA4doPP-1" source="lF_6BKa6mjAE7VA4doPP-5">
          <mxGeometry width="50" height="50" relative="1" as="geometry">
            <mxPoint x="220" y="320" as="sourcePoint" />
            <mxPoint x="340" y="270" as="targetPoint" />
          </mxGeometry>
        </mxCell>
        <mxCell id="lF_6BKa6mjAE7VA4doPP-20" value="" style="endArrow=classic;html=1;rounded=0;entryX=0.5;entryY=0;entryDx=0;entryDy=0;entryPerimeter=0;" edge="1" parent="lF_6BKa6mjAE7VA4doPP-1" target="lF_6BKa6mjAE7VA4doPP-16">
          <mxGeometry width="50" height="50" relative="1" as="geometry">
            <mxPoint x="340" y="270" as="sourcePoint" />
            <mxPoint x="270" y="270" as="targetPoint" />
          </mxGeometry>
        </mxCell>
        <mxCell id="lF_6BKa6mjAE7VA4doPP-21" value="&lt;h1 style=&quot;margin-top: 0px;&quot;&gt;START&lt;/h1&gt;&lt;p&gt;&lt;span style=&quot;white-space: pre;&quot;&gt;&#x9;&lt;/span&gt;1. INITIALIZE result = 1&lt;br&gt;&lt;/p&gt;&lt;p&gt;&lt;span style=&quot;white-space: pre;&quot;&gt;&#x9;&lt;/span&gt;2. FOR (i = 0; i &amp;lt; power; i++)&lt;br&gt;&lt;/p&gt;&lt;p&gt;&lt;span style=&quot;white-space: pre;&quot;&gt;&#x9;&lt;/span&gt;&lt;span style=&quot;white-space: pre;&quot;&gt;&#x9;&lt;/span&gt;2.1 COMPUTE result *= base;&lt;br&gt;&lt;/p&gt;&lt;p&gt;&lt;span style=&quot;white-space: pre;&quot;&gt;&#x9;&lt;/span&gt;&amp;nbsp; &amp;nbsp; ENDFOR&lt;br&gt;&lt;/p&gt;&lt;p&gt;&amp;nbsp; &amp;nbsp; &amp;nbsp; &amp;nbsp; 3. RETURN result&lt;/p&gt;&lt;h1 style=&quot;margin-top: 0px;&quot;&gt;STOP&lt;/h1&gt;" style="text;html=1;whiteSpace=wrap;overflow=hidden;rounded=0;" vertex="1" parent="lF_6BKa6mjAE7VA4doPP-1">
          <mxGeometry x="270" y="40" width="250" height="220" as="geometry" />
        </mxCell>
        <mxCell id="lF_6BKa6mjAE7VA4doPP-23" value="factorialProblemSolver(x)" style="swimlane;whiteSpace=wrap;html=1;" vertex="1" parent="1">
          <mxGeometry y="530" width="500" height="480" as="geometry" />
        </mxCell>
        <mxCell id="lF_6BKa6mjAE7VA4doPP-24" value="START" style="strokeWidth=2;html=1;shape=mxgraph.flowchart.start_1;whiteSpace=wrap;" vertex="1" parent="lF_6BKa6mjAE7VA4doPP-23">
          <mxGeometry x="110" y="40" width="100" height="60" as="geometry" />
        </mxCell>
        <mxCell id="lF_6BKa6mjAE7VA4doPP-25" value="INITIALIZE i = 1, result = 1" style="shape=hexagon;perimeter=hexagonPerimeter2;whiteSpace=wrap;html=1;fixedSize=1;" vertex="1" parent="lF_6BKa6mjAE7VA4doPP-23">
          <mxGeometry x="70" y="150" width="180" height="40" as="geometry" />
        </mxCell>
        <mxCell id="lF_6BKa6mjAE7VA4doPP-26" value="" style="endArrow=classic;html=1;rounded=0;exitX=0.5;exitY=1;exitDx=0;exitDy=0;exitPerimeter=0;entryX=0.5;entryY=0;entryDx=0;entryDy=0;" edge="1" parent="lF_6BKa6mjAE7VA4doPP-23" source="lF_6BKa6mjAE7VA4doPP-24" target="lF_6BKa6mjAE7VA4doPP-25">
          <mxGeometry width="50" height="50" relative="1" as="geometry">
            <mxPoint x="210" y="200" as="sourcePoint" />
            <mxPoint x="260" y="150" as="targetPoint" />
          </mxGeometry>
        </mxCell>
        <mxCell id="lF_6BKa6mjAE7VA4doPP-27" value="i &amp;lt;= x&lt;div&gt;?&lt;/div&gt;" style="rhombus;whiteSpace=wrap;html=1;" vertex="1" parent="lF_6BKa6mjAE7VA4doPP-23">
          <mxGeometry x="120" y="230" width="80" height="80" as="geometry" />
        </mxCell>
        <mxCell id="lF_6BKa6mjAE7VA4doPP-28" value="" style="endArrow=classic;html=1;rounded=0;exitX=0.5;exitY=1;exitDx=0;exitDy=0;entryX=0.5;entryY=0;entryDx=0;entryDy=0;" edge="1" parent="lF_6BKa6mjAE7VA4doPP-23" source="lF_6BKa6mjAE7VA4doPP-25" target="lF_6BKa6mjAE7VA4doPP-27">
          <mxGeometry width="50" height="50" relative="1" as="geometry">
            <mxPoint x="220" y="320" as="sourcePoint" />
            <mxPoint x="270" y="270" as="targetPoint" />
          </mxGeometry>
        </mxCell>
        <mxCell id="lF_6BKa6mjAE7VA4doPP-29" value="COMPUTE result *= i" style="rounded=0;whiteSpace=wrap;html=1;" vertex="1" parent="lF_6BKa6mjAE7VA4doPP-23">
          <mxGeometry x="80" y="350" width="160" height="40" as="geometry" />
        </mxCell>
        <mxCell id="lF_6BKa6mjAE7VA4doPP-30" value="" style="endArrow=classic;html=1;rounded=0;exitX=0.5;exitY=1;exitDx=0;exitDy=0;entryX=0.5;entryY=0;entryDx=0;entryDy=0;" edge="1" parent="lF_6BKa6mjAE7VA4doPP-23" source="lF_6BKa6mjAE7VA4doPP-27" target="lF_6BKa6mjAE7VA4doPP-29">
          <mxGeometry width="50" height="50" relative="1" as="geometry">
            <mxPoint x="220" y="320" as="sourcePoint" />
            <mxPoint x="270" y="270" as="targetPoint" />
          </mxGeometry>
        </mxCell>
        <mxCell id="lF_6BKa6mjAE7VA4doPP-31" value="i++" style="rounded=0;whiteSpace=wrap;html=1;" vertex="1" parent="lF_6BKa6mjAE7VA4doPP-23">
          <mxGeometry x="135" y="420" width="50" height="40" as="geometry" />
        </mxCell>
        <mxCell id="lF_6BKa6mjAE7VA4doPP-32" value="" style="endArrow=classic;html=1;rounded=0;exitX=0.5;exitY=1;exitDx=0;exitDy=0;entryX=0.5;entryY=0;entryDx=0;entryDy=0;" edge="1" parent="lF_6BKa6mjAE7VA4doPP-23" source="lF_6BKa6mjAE7VA4doPP-29" target="lF_6BKa6mjAE7VA4doPP-31">
          <mxGeometry width="50" height="50" relative="1" as="geometry">
            <mxPoint x="220" y="320" as="sourcePoint" />
            <mxPoint x="270" y="270" as="targetPoint" />
          </mxGeometry>
        </mxCell>
        <mxCell id="lF_6BKa6mjAE7VA4doPP-33" value="YES" style="text;html=1;align=center;verticalAlign=middle;whiteSpace=wrap;rounded=0;" vertex="1" parent="lF_6BKa6mjAE7VA4doPP-23">
          <mxGeometry x="160" y="310" width="60" height="30" as="geometry" />
        </mxCell>
        <mxCell id="lF_6BKa6mjAE7VA4doPP-34" value="" style="endArrow=classic;html=1;rounded=0;" edge="1" parent="lF_6BKa6mjAE7VA4doPP-23">
          <mxGeometry width="50" height="50" relative="1" as="geometry">
            <mxPoint x="50" y="210" as="sourcePoint" />
            <mxPoint x="160" y="210" as="targetPoint" />
          </mxGeometry>
        </mxCell>
        <mxCell id="lF_6BKa6mjAE7VA4doPP-35" value="" style="endArrow=none;html=1;rounded=0;" edge="1" parent="lF_6BKa6mjAE7VA4doPP-23">
          <mxGeometry width="50" height="50" relative="1" as="geometry">
            <mxPoint x="50" y="440" as="sourcePoint" />
            <mxPoint x="50" y="210" as="targetPoint" />
          </mxGeometry>
        </mxCell>
        <mxCell id="lF_6BKa6mjAE7VA4doPP-36" value="STOP" style="strokeWidth=2;html=1;shape=mxgraph.flowchart.start_1;whiteSpace=wrap;" vertex="1" parent="lF_6BKa6mjAE7VA4doPP-23">
          <mxGeometry x="290" y="410" width="100" height="60" as="geometry" />
        </mxCell>
        <mxCell id="lF_6BKa6mjAE7VA4doPP-37" value="NO" style="text;html=1;align=center;verticalAlign=middle;whiteSpace=wrap;rounded=0;" vertex="1" parent="lF_6BKa6mjAE7VA4doPP-23">
          <mxGeometry x="210" y="240" width="60" height="30" as="geometry" />
        </mxCell>
        <mxCell id="lF_6BKa6mjAE7VA4doPP-38" value="" style="endArrow=none;html=1;rounded=0;entryX=0;entryY=0.5;entryDx=0;entryDy=0;" edge="1" parent="lF_6BKa6mjAE7VA4doPP-23" target="lF_6BKa6mjAE7VA4doPP-31">
          <mxGeometry width="50" height="50" relative="1" as="geometry">
            <mxPoint x="50" y="440" as="sourcePoint" />
            <mxPoint x="270" y="270" as="targetPoint" />
          </mxGeometry>
        </mxCell>
        <mxCell id="lF_6BKa6mjAE7VA4doPP-39" value="" style="endArrow=none;html=1;rounded=0;exitX=1;exitY=0.5;exitDx=0;exitDy=0;" edge="1" parent="lF_6BKa6mjAE7VA4doPP-23" source="lF_6BKa6mjAE7VA4doPP-27">
          <mxGeometry width="50" height="50" relative="1" as="geometry">
            <mxPoint x="220" y="320" as="sourcePoint" />
            <mxPoint x="340" y="270" as="targetPoint" />
          </mxGeometry>
        </mxCell>
        <mxCell id="lF_6BKa6mjAE7VA4doPP-40" value="" style="endArrow=classic;html=1;rounded=0;entryX=0.5;entryY=0;entryDx=0;entryDy=0;entryPerimeter=0;" edge="1" parent="lF_6BKa6mjAE7VA4doPP-23" target="lF_6BKa6mjAE7VA4doPP-36">
          <mxGeometry width="50" height="50" relative="1" as="geometry">
            <mxPoint x="340" y="270" as="sourcePoint" />
            <mxPoint x="270" y="270" as="targetPoint" />
          </mxGeometry>
        </mxCell>
        <mxCell id="lF_6BKa6mjAE7VA4doPP-41" value="&lt;h1 style=&quot;margin-top: 0px;&quot;&gt;START&lt;/h1&gt;&lt;p&gt;&lt;span style=&quot;white-space: pre;&quot;&gt;&#x9;&lt;/span&gt;1. INITIALIZE result = 1&lt;br&gt;&lt;/p&gt;&lt;p&gt;&lt;span style=&quot;white-space: pre;&quot;&gt;&#x9;&lt;/span&gt;2. FOR (i = 1; i &amp;lt;= x; i++)&lt;br&gt;&lt;/p&gt;&lt;p&gt;&lt;span style=&quot;white-space: pre;&quot;&gt;&#x9;&lt;/span&gt;&lt;span style=&quot;white-space: pre;&quot;&gt;&#x9;&lt;/span&gt;2.1 COMPUTE result *= i;&lt;br&gt;&lt;/p&gt;&lt;p&gt;&lt;span style=&quot;white-space: pre;&quot;&gt;&#x9;&lt;/span&gt;&amp;nbsp; &amp;nbsp; ENDFOR&lt;br&gt;&lt;/p&gt;&lt;p&gt;&amp;nbsp; &amp;nbsp; &amp;nbsp; &amp;nbsp; 3. RETURN result&lt;/p&gt;&lt;h1 style=&quot;margin-top: 0px;&quot;&gt;STOP&lt;/h1&gt;" style="text;html=1;whiteSpace=wrap;overflow=hidden;rounded=0;" vertex="1" parent="lF_6BKa6mjAE7VA4doPP-23">
          <mxGeometry x="270" y="40" width="250" height="220" as="geometry" />
        </mxCell>
        <mxCell id="lF_6BKa6mjAE7VA4doPP-42" value="rootsProblemSolver(a, b, c)" style="swimlane;whiteSpace=wrap;html=1;" vertex="1" parent="1">
          <mxGeometry x="750" y="10" width="1060" height="950" as="geometry" />
        </mxCell>
        <mxCell id="lF_6BKa6mjAE7VA4doPP-43" value="START" style="strokeWidth=2;html=1;shape=mxgraph.flowchart.start_1;whiteSpace=wrap;" vertex="1" parent="lF_6BKa6mjAE7VA4doPP-42">
          <mxGeometry x="110" y="40" width="100" height="60" as="geometry" />
        </mxCell>
        <mxCell id="lF_6BKa6mjAE7VA4doPP-45" value="" style="endArrow=classic;html=1;rounded=0;exitX=0.5;exitY=1;exitDx=0;exitDy=0;exitPerimeter=0;entryX=0.5;entryY=0;entryDx=0;entryDy=0;" edge="1" parent="lF_6BKa6mjAE7VA4doPP-42" source="lF_6BKa6mjAE7VA4doPP-43">
          <mxGeometry width="50" height="50" relative="1" as="geometry">
            <mxPoint x="210" y="200" as="sourcePoint" />
            <mxPoint x="160" y="150" as="targetPoint" />
          </mxGeometry>
        </mxCell>
        <mxCell id="lF_6BKa6mjAE7VA4doPP-60" value="&lt;h1 style=&quot;margin-top: 0px;&quot;&gt;START&lt;/h1&gt;&lt;p&gt;&lt;span style=&quot;white-space: pre;&quot;&gt;&#x9;&lt;/span&gt;1. CHECK value of a, b, c&lt;/p&gt;&lt;p&gt;&lt;span style=&quot;white-space: pre;&quot;&gt;&#x9;&lt;/span&gt;&lt;span style=&quot;white-space: pre;&quot;&gt;&#x9;&lt;/span&gt;a) IF (a == 0 &amp;amp;&amp;amp; b == 0)&amp;nbsp; THEN&lt;br&gt;&lt;/p&gt;&lt;p&gt;&lt;span style=&quot;white-space: pre;&quot;&gt;&#x9;&lt;/span&gt;&lt;span style=&quot;white-space: pre;&quot;&gt;&#x9;&lt;/span&gt;&amp;nbsp; &amp;nbsp; &lt;span style=&quot;white-space: pre;&quot;&gt;&#x9;&lt;/span&gt;DISPLAY &quot;There is no solution.&quot;&lt;br&gt;&lt;/p&gt;&lt;p&gt;&lt;span style=&quot;white-space: pre;&quot;&gt;&#x9;&lt;/span&gt;&lt;span style=&quot;white-space: pre;&quot;&gt;&#x9;&lt;/span&gt;b) ELSE IF (a == 0) THEN&lt;/p&gt;&lt;p&gt;&lt;span style=&quot;white-space: pre;&quot;&gt;&#x9;&lt;/span&gt;&lt;span style=&quot;white-space: pre;&quot;&gt;&#x9;&lt;/span&gt;&amp;nbsp; &amp;nbsp; &lt;span style=&quot;white-space: pre;&quot;&gt;&#x9;&lt;/span&gt;COMPUTE root1 = -c/b&lt;br&gt;&lt;/p&gt;&lt;p&gt;&lt;span style=&quot;white-space: pre;&quot;&gt;&#x9;&lt;/span&gt;&lt;span style=&quot;white-space: pre;&quot;&gt;&#x9;&lt;/span&gt;&amp;nbsp; &amp;nbsp; &lt;span style=&quot;white-space: pre;&quot;&gt;&#x9;&lt;/span&gt;DISPLAY root1&lt;br&gt;&lt;/p&gt;&lt;p&gt;&amp;nbsp; &amp;nbsp; &amp;nbsp; &amp;nbsp; &amp;nbsp; &amp;nbsp; &amp;nbsp; &amp;nbsp; c) ELSE&lt;/p&gt;&lt;p&gt;&lt;span style=&quot;white-space: pre;&quot;&gt;&#x9;&lt;/span&gt;&lt;span style=&quot;white-space: pre;&quot;&gt;&#x9;&lt;/span&gt;&amp;nbsp; &amp;nbsp; &lt;span style=&quot;white-space: pre;&quot;&gt;&#x9;&lt;/span&gt;COMPUTE discriminant = (b*b) - (4*a*c)&lt;br&gt;&lt;/p&gt;&lt;p&gt;&amp;nbsp; &amp;nbsp; &amp;nbsp; &amp;nbsp; &amp;nbsp;&lt;span style=&quot;white-space: pre;&quot;&gt;&#x9;&lt;/span&gt;&amp;nbsp; &amp;nbsp; ENDIF&lt;/p&gt;&lt;p&gt;&lt;span style=&quot;white-space: pre;&quot;&gt;&#x9;&lt;/span&gt;2. CHECK value of discriminant&lt;br&gt;&lt;/p&gt;&lt;p&gt;&lt;span style=&quot;white-space: pre;&quot;&gt;&#x9;&lt;/span&gt;&lt;span style=&quot;white-space: pre;&quot;&gt;&#x9;&lt;/span&gt;a) IF (discriminant &amp;lt; 0)&lt;br&gt;&lt;/p&gt;&lt;p&gt;&lt;span style=&quot;white-space: pre;&quot;&gt;&#x9;&lt;/span&gt;&lt;span style=&quot;white-space: pre;&quot;&gt;&#x9;&lt;/span&gt;&lt;span style=&quot;white-space: pre;&quot;&gt;&#x9;&lt;/span&gt;DISPLAY &quot;There are no real roots.&quot;&lt;br&gt;&lt;/p&gt;&lt;p&gt;&lt;span style=&quot;white-space: pre;&quot;&gt;&#x9;&lt;/span&gt;&lt;span style=&quot;white-space: pre;&quot;&gt;&#x9;&lt;/span&gt;b) ELSE&amp;nbsp;&lt;br&gt;&lt;/p&gt;&lt;p&gt;&lt;span style=&quot;white-space: pre;&quot;&gt;&#x9;&lt;/span&gt;&lt;span style=&quot;white-space: pre;&quot;&gt;&#x9;&lt;/span&gt;&lt;span style=&quot;white-space: pre;&quot;&gt;&#x9;&lt;/span&gt;COMPUTE root1 = (-b + sqrt(discriminant)) / (2*a)&lt;br&gt;&lt;/p&gt;&lt;p&gt;&lt;span style=&quot;white-space: pre;&quot;&gt;&#x9;&lt;/span&gt;&lt;span style=&quot;white-space: pre;&quot;&gt;&#x9;&lt;/span&gt;&lt;span style=&quot;white-space: pre;&quot;&gt;&#x9;&lt;/span&gt;COMPUTE root2 = (-b - sqrt(discriminant)) / (2*a)&lt;br&gt;&lt;/p&gt;&lt;p&gt;&lt;span style=&quot;white-space: pre;&quot;&gt;&#x9;&lt;/span&gt;&lt;span style=&quot;white-space: pre;&quot;&gt;&#x9;&lt;/span&gt;&lt;span style=&quot;white-space: pre;&quot;&gt;&#x9;&lt;/span&gt;DISPLAY root1, root2&lt;br&gt;&lt;/p&gt;&lt;p&gt;&lt;span style=&quot;white-space: pre;&quot;&gt;&#x9;&lt;/span&gt;&lt;span style=&quot;white-space: pre;&quot;&gt;&#x9;&lt;/span&gt;&amp;nbsp; &amp;nbsp; ENDIF&lt;br&gt;&lt;/p&gt;&lt;h1 style=&quot;margin-top: 0px;&quot;&gt;STOP&lt;/h1&gt;" style="text;html=1;whiteSpace=wrap;overflow=hidden;rounded=0;" vertex="1" parent="lF_6BKa6mjAE7VA4doPP-42">
          <mxGeometry x="680" y="40" width="360" height="580" as="geometry" />
        </mxCell>
        <mxCell id="lF_6BKa6mjAE7VA4doPP-61" value="a == 0 &amp;amp;&amp;amp; b == 0&lt;div&gt;?&lt;/div&gt;" style="rhombus;whiteSpace=wrap;html=1;" vertex="1" parent="lF_6BKa6mjAE7VA4doPP-42">
          <mxGeometry x="85" y="150" width="150" height="80" as="geometry" />
        </mxCell>
        <mxCell id="lF_6BKa6mjAE7VA4doPP-62" value="DISPLAY &quot;There is no solution.&quot;" style="shape=parallelogram;perimeter=parallelogramPerimeter;whiteSpace=wrap;html=1;fixedSize=1;" vertex="1" parent="lF_6BKa6mjAE7VA4doPP-42">
          <mxGeometry x="280" y="170" width="220" height="40" as="geometry" />
        </mxCell>
        <mxCell id="lF_6BKa6mjAE7VA4doPP-63" value="" style="endArrow=classic;html=1;rounded=0;entryX=0;entryY=0.5;entryDx=0;entryDy=0;exitX=1;exitY=0.5;exitDx=0;exitDy=0;" edge="1" parent="lF_6BKa6mjAE7VA4doPP-42" source="lF_6BKa6mjAE7VA4doPP-61" target="lF_6BKa6mjAE7VA4doPP-62">
          <mxGeometry width="50" height="50" relative="1" as="geometry">
            <mxPoint x="210" y="300" as="sourcePoint" />
            <mxPoint x="260" y="250" as="targetPoint" />
          </mxGeometry>
        </mxCell>
        <mxCell id="lF_6BKa6mjAE7VA4doPP-64" value="YES" style="text;html=1;align=center;verticalAlign=middle;whiteSpace=wrap;rounded=0;" vertex="1" parent="lF_6BKa6mjAE7VA4doPP-42">
          <mxGeometry x="230" y="150" width="60" height="30" as="geometry" />
        </mxCell>
        <mxCell id="lF_6BKa6mjAE7VA4doPP-65" value="NO" style="text;html=1;align=center;verticalAlign=middle;whiteSpace=wrap;rounded=0;" vertex="1" parent="lF_6BKa6mjAE7VA4doPP-42">
          <mxGeometry x="150" y="230" width="60" height="30" as="geometry" />
        </mxCell>
        <mxCell id="lF_6BKa6mjAE7VA4doPP-66" value="a == 0&lt;div&gt;?&lt;/div&gt;" style="rhombus;whiteSpace=wrap;html=1;" vertex="1" parent="lF_6BKa6mjAE7VA4doPP-42">
          <mxGeometry x="105" y="270" width="110" height="80" as="geometry" />
        </mxCell>
        <mxCell id="lF_6BKa6mjAE7VA4doPP-67" value="" style="endArrow=classic;html=1;rounded=0;entryX=0.5;entryY=0;entryDx=0;entryDy=0;exitX=0.5;exitY=1;exitDx=0;exitDy=0;" edge="1" parent="lF_6BKa6mjAE7VA4doPP-42" source="lF_6BKa6mjAE7VA4doPP-61" target="lF_6BKa6mjAE7VA4doPP-66">
          <mxGeometry width="50" height="50" relative="1" as="geometry">
            <mxPoint x="50" y="270" as="sourcePoint" />
            <mxPoint x="110" y="250" as="targetPoint" />
          </mxGeometry>
        </mxCell>
        <mxCell id="lF_6BKa6mjAE7VA4doPP-68" value="YES" style="text;html=1;align=center;verticalAlign=middle;whiteSpace=wrap;rounded=0;" vertex="1" parent="lF_6BKa6mjAE7VA4doPP-42">
          <mxGeometry x="210" y="280" width="60" height="30" as="geometry" />
        </mxCell>
        <mxCell id="lF_6BKa6mjAE7VA4doPP-69" value="" style="endArrow=classic;html=1;rounded=0;entryX=0;entryY=0.5;entryDx=0;entryDy=0;exitX=1;exitY=0.5;exitDx=0;exitDy=0;" edge="1" parent="lF_6BKa6mjAE7VA4doPP-42">
          <mxGeometry width="50" height="50" relative="1" as="geometry">
            <mxPoint x="215" y="309.52" as="sourcePoint" />
            <mxPoint x="270" y="309.52" as="targetPoint" />
          </mxGeometry>
        </mxCell>
        <mxCell id="lF_6BKa6mjAE7VA4doPP-70" value="COMPUTE root1 = -c/b" style="rounded=0;whiteSpace=wrap;html=1;" vertex="1" parent="lF_6BKa6mjAE7VA4doPP-42">
          <mxGeometry x="270" y="295" width="160" height="30" as="geometry" />
        </mxCell>
        <mxCell id="lF_6BKa6mjAE7VA4doPP-71" value="" style="endArrow=classic;html=1;rounded=0;entryX=0;entryY=0.5;entryDx=0;entryDy=0;exitX=1;exitY=0.5;exitDx=0;exitDy=0;" edge="1" parent="lF_6BKa6mjAE7VA4doPP-42">
          <mxGeometry width="50" height="50" relative="1" as="geometry">
            <mxPoint x="430" y="309.04999999999995" as="sourcePoint" />
            <mxPoint x="485" y="309.04999999999995" as="targetPoint" />
          </mxGeometry>
        </mxCell>
        <mxCell id="lF_6BKa6mjAE7VA4doPP-72" value="DISPLAY root1" style="shape=parallelogram;perimeter=parallelogramPerimeter;whiteSpace=wrap;html=1;fixedSize=1;" vertex="1" parent="lF_6BKa6mjAE7VA4doPP-42">
          <mxGeometry x="480" y="290" width="110" height="40" as="geometry" />
        </mxCell>
        <mxCell id="lF_6BKa6mjAE7VA4doPP-74" value="NO" style="text;html=1;align=center;verticalAlign=middle;whiteSpace=wrap;rounded=0;" vertex="1" parent="lF_6BKa6mjAE7VA4doPP-42">
          <mxGeometry x="150" y="350" width="60" height="30" as="geometry" />
        </mxCell>
        <mxCell id="lF_6BKa6mjAE7VA4doPP-75" value="COMPUTE discriminant = (b*b) - (4*a*c)" style="rounded=0;whiteSpace=wrap;html=1;" vertex="1" parent="lF_6BKa6mjAE7VA4doPP-42">
          <mxGeometry x="85" y="390" width="150" height="60" as="geometry" />
        </mxCell>
        <mxCell id="lF_6BKa6mjAE7VA4doPP-76" value="discriminant &amp;lt; 0&lt;div&gt;?&lt;/div&gt;" style="rhombus;whiteSpace=wrap;html=1;" vertex="1" parent="lF_6BKa6mjAE7VA4doPP-42">
          <mxGeometry x="90" y="480" width="140" height="80" as="geometry" />
        </mxCell>
        <mxCell id="lF_6BKa6mjAE7VA4doPP-77" value="" style="endArrow=classic;html=1;rounded=0;exitX=0.5;exitY=1;exitDx=0;exitDy=0;entryX=0.5;entryY=0;entryDx=0;entryDy=0;" edge="1" parent="lF_6BKa6mjAE7VA4doPP-42" source="lF_6BKa6mjAE7VA4doPP-75" target="lF_6BKa6mjAE7VA4doPP-76">
          <mxGeometry width="50" height="50" relative="1" as="geometry">
            <mxPoint x="240" y="380" as="sourcePoint" />
            <mxPoint x="290" y="330" as="targetPoint" />
          </mxGeometry>
        </mxCell>
        <mxCell id="lF_6BKa6mjAE7VA4doPP-78" value="YES" style="text;html=1;align=center;verticalAlign=middle;whiteSpace=wrap;rounded=0;" vertex="1" parent="lF_6BKa6mjAE7VA4doPP-42">
          <mxGeometry x="215" y="490" width="60" height="30" as="geometry" />
        </mxCell>
        <mxCell id="lF_6BKa6mjAE7VA4doPP-79" value="" style="endArrow=classic;html=1;rounded=0;entryX=0;entryY=0.5;entryDx=0;entryDy=0;exitX=1;exitY=0.5;exitDx=0;exitDy=0;" edge="1" parent="lF_6BKa6mjAE7VA4doPP-42">
          <mxGeometry width="50" height="50" relative="1" as="geometry">
            <mxPoint x="230" y="520" as="sourcePoint" />
            <mxPoint x="285" y="520" as="targetPoint" />
          </mxGeometry>
        </mxCell>
        <mxCell id="lF_6BKa6mjAE7VA4doPP-80" value="DISPLAY &quot;There are no real roots.&quot;" style="shape=parallelogram;perimeter=parallelogramPerimeter;whiteSpace=wrap;html=1;fixedSize=1;" vertex="1" parent="lF_6BKa6mjAE7VA4doPP-42">
          <mxGeometry x="275" y="505" width="230" height="30" as="geometry" />
        </mxCell>
        <mxCell id="lF_6BKa6mjAE7VA4doPP-81" value="NO" style="text;html=1;align=center;verticalAlign=middle;whiteSpace=wrap;rounded=0;" vertex="1" parent="lF_6BKa6mjAE7VA4doPP-42">
          <mxGeometry x="155" y="560" width="60" height="30" as="geometry" />
        </mxCell>
        <mxCell id="lF_6BKa6mjAE7VA4doPP-82" value="COMPUTE root1 = (-b + sqrt(discriminant)) / (2*a)" style="rounded=0;whiteSpace=wrap;html=1;" vertex="1" parent="lF_6BKa6mjAE7VA4doPP-42">
          <mxGeometry x="85" y="600" width="150" height="60" as="geometry" />
        </mxCell>
        <mxCell id="lF_6BKa6mjAE7VA4doPP-83" value="" style="endArrow=classic;html=1;rounded=0;entryX=0.5;entryY=0;entryDx=0;entryDy=0;" edge="1" parent="lF_6BKa6mjAE7VA4doPP-42" source="lF_6BKa6mjAE7VA4doPP-76" target="lF_6BKa6mjAE7VA4doPP-82">
          <mxGeometry width="50" height="50" relative="1" as="geometry">
            <mxPoint x="240" y="500" as="sourcePoint" />
            <mxPoint x="290" y="450" as="targetPoint" />
          </mxGeometry>
        </mxCell>
        <mxCell id="lF_6BKa6mjAE7VA4doPP-85" value="COMPUTE root2 = (-b - sqrt(discriminant)) / (2*a)" style="rounded=0;whiteSpace=wrap;html=1;" vertex="1" parent="lF_6BKa6mjAE7VA4doPP-42">
          <mxGeometry x="85" y="700" width="150" height="60" as="geometry" />
        </mxCell>
        <mxCell id="lF_6BKa6mjAE7VA4doPP-87" value="DISPLAY root1, root2" style="shape=parallelogram;perimeter=parallelogramPerimeter;whiteSpace=wrap;html=1;fixedSize=1;" vertex="1" parent="lF_6BKa6mjAE7VA4doPP-42">
          <mxGeometry x="75" y="790" width="170" height="30" as="geometry" />
        </mxCell>
        <mxCell id="lF_6BKa6mjAE7VA4doPP-88" value="" style="endArrow=classic;html=1;rounded=0;exitX=0.5;exitY=1;exitDx=0;exitDy=0;entryX=0.5;entryY=0;entryDx=0;entryDy=0;" edge="1" parent="lF_6BKa6mjAE7VA4doPP-42" source="lF_6BKa6mjAE7VA4doPP-85" target="lF_6BKa6mjAE7VA4doPP-87">
          <mxGeometry width="50" height="50" relative="1" as="geometry">
            <mxPoint x="260" y="730" as="sourcePoint" />
            <mxPoint x="310" y="680" as="targetPoint" />
          </mxGeometry>
        </mxCell>
        <mxCell id="lF_6BKa6mjAE7VA4doPP-90" value="STOP" style="strokeWidth=2;html=1;shape=mxgraph.flowchart.start_1;whiteSpace=wrap;" vertex="1" parent="lF_6BKa6mjAE7VA4doPP-42">
          <mxGeometry x="110" y="860" width="100" height="60" as="geometry" />
        </mxCell>
        <mxCell id="lF_6BKa6mjAE7VA4doPP-91" value="" style="endArrow=classic;html=1;rounded=0;exitX=0.5;exitY=1;exitDx=0;exitDy=0;entryX=0.5;entryY=0;entryDx=0;entryDy=0;entryPerimeter=0;" edge="1" parent="lF_6BKa6mjAE7VA4doPP-42" source="lF_6BKa6mjAE7VA4doPP-87" target="lF_6BKa6mjAE7VA4doPP-90">
          <mxGeometry width="50" height="50" relative="1" as="geometry">
            <mxPoint x="260" y="850" as="sourcePoint" />
            <mxPoint x="310" y="800" as="targetPoint" />
          </mxGeometry>
        </mxCell>
        <mxCell id="lF_6BKa6mjAE7VA4doPP-92" value="X" style="ellipse;whiteSpace=wrap;html=1;aspect=fixed;" vertex="1" parent="lF_6BKa6mjAE7VA4doPP-42">
          <mxGeometry x="600" y="840" width="20" height="20" as="geometry" />
        </mxCell>
        <mxCell id="lF_6BKa6mjAE7VA4doPP-73" value="" style="endArrow=classic;html=1;rounded=0;exitX=0.5;exitY=1;exitDx=0;exitDy=0;" edge="1" parent="1" source="lF_6BKa6mjAE7VA4doPP-66">
          <mxGeometry width="50" height="50" relative="1" as="geometry">
            <mxPoint x="990" y="390" as="sourcePoint" />
            <mxPoint x="910" y="400" as="targetPoint" />
          </mxGeometry>
        </mxCell>
        <mxCell id="lF_6BKa6mjAE7VA4doPP-84" value="" style="endArrow=classic;html=1;rounded=0;exitX=0.5;exitY=1;exitDx=0;exitDy=0;" edge="1" parent="1" source="lF_6BKa6mjAE7VA4doPP-82">
          <mxGeometry width="50" height="50" relative="1" as="geometry">
            <mxPoint x="1010" y="610" as="sourcePoint" />
            <mxPoint x="910" y="710" as="targetPoint" />
          </mxGeometry>
        </mxCell>
        <mxCell id="lF_6BKa6mjAE7VA4doPP-93" value="" style="endArrow=classic;html=1;rounded=0;entryX=0.5;entryY=0;entryDx=0;entryDy=0;" edge="1" parent="1" target="lF_6BKa6mjAE7VA4doPP-92">
          <mxGeometry width="50" height="50" relative="1" as="geometry">
            <mxPoint x="1360" y="200" as="sourcePoint" />
            <mxPoint x="1220" y="600" as="targetPoint" />
          </mxGeometry>
        </mxCell>
        <mxCell id="lF_6BKa6mjAE7VA4doPP-94" value="" style="endArrow=classic;html=1;rounded=0;exitX=0;exitY=0.5;exitDx=0;exitDy=0;" edge="1" parent="1" source="lF_6BKa6mjAE7VA4doPP-92">
          <mxGeometry width="50" height="50" relative="1" as="geometry">
            <mxPoint x="1170" y="770" as="sourcePoint" />
            <mxPoint x="910" y="850" as="targetPoint" />
          </mxGeometry>
        </mxCell>
        <mxCell id="lF_6BKa6mjAE7VA4doPP-95" value="" style="endArrow=classic;html=1;rounded=0;exitX=1;exitY=0.5;exitDx=0;exitDy=0;" edge="1" parent="1" source="lF_6BKa6mjAE7VA4doPP-62">
          <mxGeometry width="50" height="50" relative="1" as="geometry">
            <mxPoint x="1170" y="390" as="sourcePoint" />
            <mxPoint x="1360" y="200" as="targetPoint" />
          </mxGeometry>
        </mxCell>
        <mxCell id="lF_6BKa6mjAE7VA4doPP-96" value="" style="endArrow=classic;html=1;rounded=0;" edge="1" parent="1" source="lF_6BKa6mjAE7VA4doPP-72">
          <mxGeometry width="50" height="50" relative="1" as="geometry">
            <mxPoint x="1170" y="390" as="sourcePoint" />
            <mxPoint x="1360" y="320" as="targetPoint" />
          </mxGeometry>
        </mxCell>
        <mxCell id="lF_6BKa6mjAE7VA4doPP-97" value="" style="endArrow=classic;html=1;rounded=0;exitX=1;exitY=0.5;exitDx=0;exitDy=0;" edge="1" parent="1" source="lF_6BKa6mjAE7VA4doPP-80">
          <mxGeometry width="50" height="50" relative="1" as="geometry">
            <mxPoint x="1170" y="520" as="sourcePoint" />
            <mxPoint x="1360" y="530" as="targetPoint" />
          </mxGeometry>
        </mxCell>
      </root>
    </mxGraphModel>
  </diagram>
</mxfile>
